<?xml version="1.0" encoding="utf-8"?>
<!-- Generator: Adobe Illustrator 24.1.2, SVG Export Plug-In . SVG Version: 6.00 Build 0)  -->
<svg version="1.1" id="Layer_1" xmlns="http://www.w3.org/2000/svg" xmlns:xlink="http://www.w3.org/1999/xlink" x="0px" y="0px"
	 viewBox="0 0 150 48.2" style="enable-background:new 0 0 150 48.2;" xml:space="preserve">
<style type="text/css">
	.st0{fill:#7CCCC9;}
	.st1{fill:#333333;}
	.st2{fill:#808080;}
</style>
<g>
	<g>
		<circle class="st0" cx="17.8" cy="24.2" r="17.5"/>
		<g>
			<path class="st1" d="M29.2,24.9c-0.1-0.1-0.2-0.1-0.4-0.1l-0.4,0.3c0,0,0,0,0,0c-1.5,1-3,1.8-4.6,2.5c-0.9,0.4-1.8,0.7-2.8,1
				c-1,0.3-1.9,0.5-2.9,0.7c-2,0.3-4,0.3-6,0c-1-0.2-2-0.4-2.9-0.7c-0.9-0.3-1.8-0.7-2.6-1.1c0-0.2,0.1-0.5,0.1-0.7c0,0,0,0,0,0
				c0.8,0.2,1.5,0.3,2.3,0.5c0.9,0.1,1.8,0.2,2.7,0.3c1.8,0.1,3.6,0.1,5.3-0.2c0.9-0.1,1.8-0.3,2.6-0.6c0.9-0.3,1.7-0.6,2.5-1
				c0.8-0.4,1.6-0.9,2.3-1.5c0.6-0.5,1.2-1.1,1.7-1.7c0.4,0.6,0.9,1.1,1.4,1.6c-0.5-0.5-0.9-1.1-1.2-1.8c0,0,0,0,0,0l0,0
				c-0.1-0.2-0.2-0.5-0.3-0.7c-0.3-0.9-0.4-1.9-0.2-2.9c0.1-0.5,0.2-0.9,0.4-1.4c0.2-0.5,0.4-0.9,0.7-1.3c0.5-0.9,1.1-1.8,1.5-2.7
				l0.3-0.7l0.3-0.7c0.2-0.5,0.4-0.9,0.6-1.4c0.3-1,0.7-1.9,0.9-2.9c0.2-1,0.4-2,0.6-3c0.1-1,0.2-2,0.3-3c-0.2,1-0.4,2-0.7,3
				c-0.2,1-0.5,2-0.8,2.9c-0.6,1.9-1.3,3.8-2.2,5.6c-0.4,0.9-0.9,1.8-1.5,2.6c-0.5,0.9-1,1.9-1.1,3c-0.1,1.1,0,2.1,0.5,3.1
				c0,0.1,0.1,0.1,0.1,0.2l0,0c-0.5,0.7-1.1,1.3-1.7,1.9c-0.7,0.6-1.4,1.1-2.1,1.5c-0.8,0.4-1.6,0.8-2.4,1c-0.8,0.3-1.7,0.5-2.6,0.6
				c-1.7,0.3-3.5,0.4-5.3,0.3c-0.9,0-1.8-0.1-2.7-0.2c-0.8-0.1-1.5-0.2-2.3-0.4c0.1-1,0.4-2,0.7-2.9c0.2-0.5,0.4-1,0.6-1.5
				c0.2-0.4,0.4-0.7,0.6-1c0.8,0.9,1.7,1.7,2.7,2.4c-1.4-1.4-2.7-2.9-3.6-4.7c-0.2-0.4-0.4-0.9-0.7-1.3c-0.2-0.5-0.4-0.9-0.5-1.4
				c-0.3-0.9-0.6-1.9-0.8-2.8c-0.4-1.9-0.5-3.9-0.4-5.9c0-1.4,0.2-2.8,0.4-4.2c0-0.1-0.2-0.2-0.2,0C5.1,4.8,4.9,6.3,4.7,7.7
				c-0.1,1-0.1,2-0.1,3c0,1,0.2,2,0.4,3c0.2,1,0.5,2,0.8,2.9c0.2,0.5,0.4,0.9,0.6,1.4c0.2,0.5,0.5,0.9,0.7,1.3
				c0.4,0.7,0.9,1.3,1.4,2c-0.3,0.3-0.5,0.6-0.7,1c-0.3,0.5-0.5,0.9-0.8,1.4c-0.4,1-0.8,2-1,3.1c-0.4,2.1-0.4,4.3,0.1,6.4
				c0.4,2.1,1.2,4.1,2.1,6c0.7,1.3,1.4,2.6,2.3,3.8c0.1,0.1,0.3,0,0.2-0.1c-0.7-1.3-1.4-2.6-2-3.9c-0.4-1-0.8-1.9-1.1-2.9
				c-0.2-0.5-0.3-1-0.5-1.5c-0.1-0.3-0.1-0.5-0.2-0.8L7,33.5L7,33.1c0-0.3-0.1-0.5-0.1-0.8l-0.1-0.8c-0.1-0.5-0.1-1-0.1-1.6
				c0-0.8,0-1.7,0.1-2.5c0.8,0.5,1.7,0.9,2.5,1.2c0.9,0.3,1.9,0.6,2.9,0.8c2,0.4,4,0.4,6,0.2c1-0.1,2-0.3,3-0.6c1-0.3,1.9-0.6,2.9-1
				c1.7-0.7,3.3-1.5,4.8-2.5c0.5,0.7,0.9,1.5,1.2,2.3c0.4,1,0.6,2.2,0.6,3.3c0,1.1-0.2,2.2-0.5,3.3c-0.3,1.1-0.8,2.1-1.4,3.1
				c-0.5,0.6-1,1.3-1.5,2c-0.5,0.7-0.9,1.4-1.3,2.1c-0.4,0.7-0.7,1.5-1,2.3c-0.1,0.4-0.2,0.8-0.2,1.2c0,0.4,0,0.8,0.1,1.2
				c-0.2-0.8-0.1-1.7,0.2-2.4c0.3-0.8,0.6-1.5,1-2.2c0.4-0.7,0.9-1.4,1.3-2.1c0.5-0.7,1-1.3,1.5-1.9l0,0l0,0c0.6-1,1.1-2,1.5-3.1
				c0.4-1.1,0.6-2.3,0.7-3.4c0-1.2-0.1-2.4-0.5-3.5C30.3,26.8,29.8,25.8,29.2,24.9z"/>
			<path class="st1" d="M16.4,14.7c0.1,0.8,0.3,1.5,0.6,2.2c0.1,0.4,0.3,0.7,0.5,1c0.2,0.3,0.4,0.6,0.8,0.8c-0.5-0.6-0.7-1.3-0.9-2
				c-0.1-0.2-0.1-0.4-0.1-0.5c0-0.2-0.1-0.4-0.1-0.5l-0.1-0.5l-0.1-0.5c-0.1-0.4-0.1-0.7-0.1-1.1l-0.1-1.1l-0.1-1.1
				c0-0.4,0-0.7-0.1-1.1c-0.1,0.4-0.1,0.7-0.2,1.1c0,0.4-0.1,0.8-0.1,1.1c0,0.4,0,0.8,0,1.1C16.3,14,16.3,14.3,16.4,14.7z"/>
		</g>
	</g>
	<g>
		<g>
			<path class="st2" d="M48.1,20.5c0.2-0.1,0.5-0.1,0.7,0c0.2,0.1,0.3,0.2,0.3,0.4c-0.3,1-0.7,2.1-1.2,3.3c-0.4,1.1-0.8,2.1-1.1,3.2
				c1-1.5,2.2-3.1,3.5-4.5c0.7-0.8,1.3-1.4,1.9-1.8c0.6-0.5,1.1-0.7,1.5-0.6c0.4,0.1,0.7,0.4,0.7,0.9c0.1,0.5,0.1,1.1-0.1,1.7
				c-0.1,0.7-0.2,1.2-0.3,1.8c-0.1,0.3-0.2,0.6-0.2,0.8c0.2-0.1,0.3-0.3,0.5-0.5c0.7-0.7,1.5-1.3,2.4-2c0.9-0.7,1.7-1.1,2.5-1.2
				c0.5,0,0.8,0.2,0.8,0.6c0,0.2-0.1,0.4-0.2,0.7c-0.1,0.3-0.2,0.7-0.4,1c-0.1,0.3-0.3,0.6-0.4,0.9c-0.1,0.3-0.1,0.4,0,0.4
				c0.5,0.2,1.4,0.1,2.7-0.3c1.3-0.3,2.6-0.8,3.9-1.2c1.3-0.5,2.2-0.9,2.7-1.1c0,0,0.1,0,0.1,0.1c0,0,0.1,0.1,0.1,0.2
				c0,0.1,0,0.1-0.1,0.2c-0.6,0.3-1.6,0.7-3,1.3c-1.4,0.6-2.7,1-4.1,1.4c-1.4,0.4-2.4,0.5-3,0.2c-0.4-0.2-0.5-0.6-0.3-1.2
				c0.2-0.6,0.4-1.2,0.7-1.8c0.1-0.3,0.3-0.6,0.3-0.8c-0.5,0.2-1.2,0.5-1.8,1.1c-0.7,0.6-1.3,1.3-2,1.9c-0.6,0.6-1.2,1.2-1.6,1.6
				c-0.1,0.1-0.2,0.1-0.4,0c-0.2-0.1-0.3-0.2-0.5-0.3c-0.1-0.1-0.2-0.3-0.2-0.4c0-0.2,0.1-0.7,0.3-1.5c0.1-0.5,0.2-1,0.3-1.6
				c0.1-0.6,0.2-1,0.2-1.4c0-0.4,0-0.6,0-0.6c-0.5,0-1.3,0.7-2.5,2.1C50,24,49.3,24.9,48.6,26c-0.7,1.1-1.2,2-1.7,2.8
				c-0.1,0.2-0.2,0.2-0.4,0.2c-0.3,0-0.6-0.1-0.8-0.4c-0.2-0.2-0.3-0.5-0.3-0.8c0.1-1.3,0.6-3,1.5-4.9c0.3-0.7,0.5-1.3,0.7-2
				C47.7,20.7,47.9,20.6,48.1,20.5z"/>
			<path class="st2" d="M69.3,21.1c0.2,0,0.4,0,0.6,0s0.2,0.2,0.1,0.3c-0.1,0.2-0.2,0.6-0.4,1.1c-0.2,0.5-0.3,1-0.5,1.5
				C69,24.7,69,25,69.1,25.2c1.4,0.1,3.2-0.1,5.4-0.7c2.2-0.6,3.9-1.2,5.2-1.7c0.1,0,0.1,0,0.2,0c0,0,0.1,0.1,0.1,0.2
				c0,0.1,0,0.1-0.1,0.2c-1.3,0.6-2.9,1.2-5,1.9c-2,0.7-3.8,1.1-5.4,1.1c-0.6,0-1,0-1.3-0.2c-0.3-0.2-0.4-0.6-0.3-1.2
				c0-0.6,0.2-1.2,0.4-1.9c0.2-0.6,0.4-1.1,0.5-1.4C68.9,21.3,69.1,21.2,69.3,21.1z M71.2,17.2c0.2-0.1,0.4-0.1,0.5-0.1
				c0.1,0,0.2,0.1,0.1,0.3c-0.1,0.2-0.3,0.5-0.5,0.7c-0.2,0.3-0.4,0.6-0.5,0.8c-0.1,0.2-0.2,0.3-0.3,0.3c-0.1,0.1-0.2,0-0.3,0
				c-0.1-0.1-0.1-0.2,0-0.4c0.1-0.3,0.3-0.6,0.4-1c0.1-0.1,0.1-0.3,0.2-0.4C70.9,17.4,71,17.3,71.2,17.2z"/>
			<path class="st2" d="M80.1,20.8c0.2-0.1,0.4-0.1,0.6,0c0.2,0,0.3,0.1,0.3,0.3c-0.1,0.9-0.3,1.9-0.7,3.2c0.8-1.1,1.9-2.3,3.2-3.6
				c1.4-1.3,2.8-2,4.1-2.1c0.8,0.1,1.3,0.3,1.6,0.6c0.2,0.3,0.3,0.6,0.1,0.8c-0.2,0.2-0.4,0.3-0.8,0.2c-0.2-0.1-0.3-0.1-0.4-0.2
				C88,20,88,19.9,87.9,19.9c-0.1-0.1-0.2-0.2-0.3-0.3c-0.1-0.1-0.3-0.1-0.6-0.1c-1.1,0.1-2.1,0.7-3.1,1.7c-1,1-1.9,2.1-2.7,3.4
				c-0.8,1.2-1.3,2.2-1.7,3c-0.1,0.2-0.3,0.3-0.5,0.3c-0.2,0.1-0.4,0.1-0.6,0c-0.2,0-0.2-0.2-0.2-0.3c0.3-1,0.7-2.1,1-3.3
				c0.3-1.2,0.5-2.2,0.6-3.2C79.8,20.9,79.9,20.8,80.1,20.8z"/>
			<path class="st2" d="M95.2,21.1c0,0.1,0,0.1-0.1,0.2c-0.1,0.1-0.3,0.1-0.5,0.1c-0.9,0-1.8,0.4-2.8,1.3c-1,0.9-1.5,1.7-1.6,2.5
				c1-0.4,2.2-1.1,3.6-2.1c0.9-0.6,1.8-1.2,2.5-1.6c1.3-0.7,2.1-0.9,2.5-0.7c0.3,0.2,0.4,0.7,0.2,1.3c-0.2,0.7-0.5,1.4-0.8,2.1
				c0,0.1-0.1,0.2-0.2,0.4c-0.1,0.2-0.2,0.4-0.3,0.5c-0.1,0.2-0.1,0.3-0.1,0.4c0,0.1,0.1,0.1,0.4,0.1c1.3-0.2,2.9-0.6,4.8-1.2
				c1.9-0.6,3.4-1.2,4.4-1.7c0.1,0,0.1,0,0.2,0c0.1,0,0.1,0.1,0.1,0.2c0,0.1,0,0.1-0.1,0.2c-0.7,0.3-1.7,0.8-3.1,1.3
				c-1.4,0.6-2.8,1.1-4.2,1.5c-1.4,0.4-2.5,0.6-3.2,0.6c-0.5-0.1-0.7-0.4-0.6-0.9c0.1-0.6,0.4-1.4,0.9-2.3c0.9-1.5,0.5-1.8-1-0.8
				c-0.2,0.1-0.6,0.3-1,0.6c-0.7,0.4-1.4,0.9-2.2,1.4c-0.8,0.5-1.6,0.9-2.3,1.1c-0.5,0.2-0.9,0.2-1.2,0.1c-0.3-0.1-0.5-0.4-0.5-0.9
				c0.2-1.1,0.9-2,2.1-2.9c1.2-0.9,2.4-1.3,3.7-1.2C95.1,20.9,95.2,21,95.2,21.1z"/>
			<path class="st2" d="M107.9,21.5c0.2,0,0.3,0,0.4,0c0.1,0,0.2,0.1,0.1,0.3c-0.1,0.3-0.2,0.6-0.4,1c0.5-0.5,1.2-1,2-1.4
				c0.8-0.5,1.6-0.7,2.3-0.6c0.5,0.1,0.7,0.5,0.6,1c-0.1,0.5-0.3,1-0.6,1.5c-0.2,0.4-0.4,0.8-0.5,1.2c1.4,0,3.2-0.2,5.2-0.5
				c2.1-0.4,3.8-0.8,5-1.2c0.1,0,0.1,0,0.2,0.1c0,0.1,0,0.1,0,0.2c0,0.1,0,0.1-0.1,0.1c-1.3,0.5-3,0.9-5.1,1.4
				c-2.1,0.5-3.9,0.7-5.3,0.8c-0.3,0-0.5,0-0.6-0.1c-0.2-0.1-0.2-0.3-0.3-0.6c0-0.3,0.2-0.7,0.4-1.4c0.2-0.6,0.5-1.2,0.7-1.6
				l0.2-0.5c-0.5-0.1-1.1,0.1-1.9,0.6c-0.7,0.5-1.4,1-2,1.7c-0.6,0.6-1.1,1.1-1.4,1.5c-0.1,0.2-0.3,0.3-0.5,0.3
				c-0.2,0.1-0.4,0.1-0.6,0c-0.2,0-0.2-0.1-0.1-0.3c0.1-0.2,0.2-0.4,0.4-0.7c0.3-0.5,0.6-1,0.8-1.5c0.3-0.5,0.5-1,0.6-1.4
				C107.6,21.5,107.8,21.5,107.9,21.5z"/>
			<path class="st2" d="M127,22.1c0,0.1,0,0.3-0.1,0.4c-0.1,0.1-0.3,0.1-0.4,0.1c-1-0.3-1.9-0.2-2.8,0.3c-0.9,0.5-1.6,1.1-2.1,1.7
				c-0.5,0.7-0.6,1.2-0.5,1.5c0.2,0.3,0.8,0.2,1.9-0.4c1.1-0.6,2.8-1.9,5.2-4c3.5-7.7,6.6-13.1,9.4-16.3c2.8-3.1,4.6-4.4,5.6-3.7
				c0.9,0.6,0.4,2.8-1.7,6.4c-2.1,3.6-6.2,8.3-12.4,14.1c-0.1,0.2-0.2,0.5-0.4,1c-0.6,1.3-1.3,3-2.2,5.1c-0.9,2.1-1.5,4.1-1.9,6
				c-0.4,1.9-0.2,3.1,0.6,3.7c0.5,0.3,0.7,0.6,0.7,0.8c0,0.2-0.1,0.4-0.4,0.4c-0.3,0-0.6-0.2-1-0.6c-0.6-0.9-0.7-2.3-0.3-4.4
				c0.4-2.1,1-4.1,1.7-6.2c0.7-2.1,1.3-3.5,1.7-4.4c-2.2,1.8-3.9,2.8-5,3.2c-1.1,0.3-1.7,0.2-1.9-0.4c-0.2-0.6,0-1.3,0.5-2.2
				c0.5-0.9,1.3-1.6,2.3-2.1c1-0.6,2.2-0.7,3.5-0.3C126.9,21.8,127,21.9,127,22.1z M140.7,7.6c1.9-3.1,2.5-4.8,1.8-5.1
				c-0.7-0.4-2.2,0.9-4.5,3.7c-2.3,2.8-5,7.5-8.1,13.9C135.2,14.8,138.8,10.7,140.7,7.6z"/>
			<path class="st2" d="M137.4,21.1c0,0.1,0,0.1-0.1,0.2c-0.1,0.1-0.3,0.1-0.5,0.1c-0.9,0-1.8,0.4-2.8,1.3c-1,0.9-1.5,1.7-1.6,2.5
				c1-0.4,2.2-1.1,3.6-2.1c0.9-0.6,1.8-1.2,2.5-1.6c1.3-0.7,2.1-0.9,2.5-0.7c0.3,0.2,0.4,0.7,0.2,1.3c-0.2,0.7-0.5,1.4-0.8,2.1
				c0,0.1-0.1,0.2-0.2,0.4c-0.1,0.2-0.2,0.4-0.3,0.5c-0.1,0.2-0.1,0.3-0.1,0.4c0,0.1,0.1,0.1,0.4,0.1c1.3-0.2,2.9-0.6,4.8-1.2
				c1.9-0.6,3.4-1.2,4.4-1.7c0.1,0,0.1,0,0.2,0c0.1,0,0.1,0.1,0.1,0.2c0,0.1,0,0.1-0.1,0.2c-0.7,0.3-1.7,0.8-3.1,1.3
				c-1.4,0.6-2.8,1.1-4.2,1.5c-1.4,0.4-2.5,0.6-3.2,0.6c-0.5-0.1-0.7-0.4-0.6-0.9c0.1-0.6,0.4-1.4,0.9-2.3c0.9-1.5,0.5-1.8-1-0.8
				c-0.2,0.1-0.6,0.3-1,0.6c-0.7,0.4-1.4,0.9-2.2,1.4c-0.8,0.5-1.6,0.9-2.3,1.1c-0.5,0.2-0.9,0.2-1.2,0.1c-0.3-0.1-0.5-0.4-0.5-0.9
				c0.2-1.1,0.9-2,2.1-2.9c1.2-0.9,2.4-1.3,3.7-1.2C137.2,20.9,137.3,21,137.4,21.1z"/>
		</g>
		<g>
			<g>
				<path class="st2" d="M66.9,31.8c0,0,0,0.1,0,0.1V34c0,0,0,0.1-0.1,0.1c0,0-0.1,0-0.1,0c0,0-0.1,0-0.1,0c0,0,0-0.1,0-0.1v-1.5
					L65.9,34c0,0.1-0.1,0.1-0.1,0.1c-0.1,0-0.1,0-0.2-0.1l-0.8-1.5V34c0,0,0,0.1,0,0.1c0,0-0.1,0-0.1,0c0,0-0.1,0-0.1,0
					c0,0,0-0.1,0-0.1v-2.1c0,0,0-0.1,0-0.1c0,0,0.1,0,0.1,0c0.1,0,0.1,0,0.2,0.1l1,1.8l0.9-1.8c0-0.1,0.1-0.1,0.2-0.1
					C66.9,31.8,66.9,31.8,66.9,31.8z"/>
				<path class="st2" d="M66.8,34.2c-0.1,0-0.1,0-0.2-0.1c0,0-0.1-0.1-0.1-0.2v-1.3L65.9,34c-0.1,0.1-0.1,0.1-0.2,0.1
					c-0.1,0-0.2,0-0.2-0.1l-0.7-1.2V34c0,0.1,0,0.1-0.1,0.2c-0.1,0.1-0.2,0.1-0.3,0c0,0-0.1-0.1-0.1-0.2v-2.1c0-0.1,0-0.1,0.1-0.2
					c0,0,0.1-0.1,0.2-0.1c0.1,0,0.2,0,0.2,0.1l0.9,1.7l0.9-1.7c0-0.1,0.1-0.1,0.2-0.1c0.1,0,0.1,0,0.2,0.1c0,0,0.1,0.1,0.1,0.2V34
					c0,0.1,0,0.1-0.1,0.2C66.9,34.2,66.9,34.2,66.8,34.2z M66.7,32.2V34c0,0,0,0.1,0,0.1c0,0,0.1,0,0.2,0c0,0,0,0,0-0.1v-2.1
					c0,0,0-0.1,0-0.1c0,0-0.1,0-0.2,0l-1,1.9l-1-1.9c0-0.1-0.1-0.1-0.2,0c0,0,0,0,0,0.1V34c0,0,0,0.1,0,0.1c0,0,0.1,0,0.2,0
					c0,0,0,0,0-0.1v-1.7l0.9,1.7c0,0,0.1,0.1,0.1,0.1c0,0,0.1,0,0.1-0.1L66.7,32.2z"/>
			</g>
			<g>
				<path class="st2" d="M71.1,34c0,0,0,0.1,0,0.1c0,0-0.1,0-0.1,0c0,0-0.1,0-0.1,0c0,0-0.1,0-0.1-0.1l-0.2-0.4h-1.2L69.3,34
					c0,0,0,0.1-0.1,0.1c0,0-0.1,0-0.1,0c0,0-0.1,0-0.1,0c0,0,0-0.1,0-0.1c0,0,0,0,0-0.1l0.9-2c0-0.1,0.1-0.1,0.2-0.1
					c0.1,0,0.1,0,0.2,0.1L71.1,34C71.1,33.9,71.1,34,71.1,34z M69.6,33.3h0.9L70,32.3L69.6,33.3z"/>
				<path class="st2" d="M71,34.2c0,0-0.1,0-0.1,0c0,0-0.1-0.1-0.1-0.1l-0.2-0.4h-1.1l-0.2,0.4c0,0-0.1,0.1-0.1,0.1
					c-0.1,0.1-0.2,0-0.3,0c0,0-0.1-0.1-0.1-0.2c0,0,0-0.1,0-0.1l0.9-2c0.1-0.1,0.1-0.1,0.2-0.1c0.1,0,0.2,0.1,0.2,0.1l0.9,2
					c0,0,0,0.1,0,0.1c0,0.1,0,0.1-0.1,0.2C71.1,34.2,71,34.2,71,34.2z M69.4,33.6h1.3l0.2,0.5c0,0,0,0,0,0c0,0,0.1,0,0.1,0
					c0,0,0,0,0-0.1c0,0,0,0,0,0l-0.9-2c0-0.1-0.1-0.1-0.1-0.1c0,0-0.1,0-0.1,0.1l-0.9,2c0,0,0,0,0,0c0,0,0,0.1,0,0.1
					c0,0,0.1,0,0.1,0c0,0,0,0,0,0L69.4,33.6z M70.6,33.4h-1.1l0.6-1.3L70.6,33.4z M69.7,33.3h0.8L70,32.4L69.7,33.3z"/>
			</g>
			<g>
				<path class="st2" d="M73.3,34c-0.2-0.1-0.3-0.2-0.4-0.3c0,0,0,0,0-0.1c0,0,0-0.1,0-0.1c0,0,0.1,0,0.1,0c0,0,0,0,0,0
					c0,0,0.1,0,0.1,0c0,0,0.1,0,0.1,0.1c0,0.1,0.1,0.1,0.2,0.2c0.1,0.1,0.2,0.1,0.4,0.1c0.2,0,0.3,0,0.4-0.1
					c0.1-0.1,0.2-0.2,0.2-0.3c0-0.1,0-0.2-0.1-0.3c-0.1-0.1-0.2-0.1-0.4-0.2c-0.3,0-0.5-0.1-0.6-0.2c-0.2-0.1-0.2-0.3-0.2-0.5
					c0-0.1,0-0.2,0.1-0.3c0.1-0.1,0.2-0.2,0.3-0.2c0.1,0,0.3-0.1,0.5-0.1c0.2,0,0.3,0,0.5,0.1c0.1,0.1,0.2,0.2,0.3,0.3
					c0,0,0,0.1,0,0.1c0,0,0,0.1-0.1,0.1c0,0-0.1,0-0.1,0c0,0-0.1,0-0.1,0c0,0-0.1,0-0.1-0.1c-0.1-0.1-0.1-0.2-0.2-0.2
					c-0.1,0-0.2-0.1-0.3-0.1c-0.2,0-0.3,0-0.4,0.1c-0.1,0.1-0.2,0.1-0.2,0.3c0,0.1,0,0.2,0.1,0.3c0.1,0.1,0.3,0.1,0.5,0.1
					c0.3,0,0.5,0.1,0.6,0.2c0.1,0.1,0.2,0.3,0.2,0.5c0,0.1,0,0.3-0.1,0.4c-0.1,0.1-0.2,0.2-0.3,0.2c-0.1,0.1-0.3,0.1-0.5,0.1
					C73.7,34.2,73.5,34.1,73.3,34z"/>
				<path class="st2" d="M73.9,34.2c-0.2,0-0.4,0-0.6-0.1c-0.2-0.1-0.3-0.2-0.4-0.4c0,0,0-0.1,0-0.1c0,0,0-0.1,0.1-0.1
					c0,0,0.1-0.1,0.1-0.1c0,0,0,0,0,0c0,0,0.1,0,0.1,0c0,0,0.1,0.1,0.1,0.1c0,0.1,0.1,0.1,0.2,0.2c0.1,0.1,0.2,0.1,0.4,0.1
					c0.2,0,0.3,0,0.4-0.1c0.1-0.1,0.1-0.1,0.1-0.2c0-0.1,0-0.2-0.1-0.3c-0.1-0.1-0.2-0.1-0.4-0.1c-0.3,0-0.5-0.1-0.7-0.2
					c-0.2-0.1-0.3-0.3-0.3-0.5c0-0.1,0-0.3,0.1-0.4c0.1-0.1,0.2-0.2,0.4-0.2c0.1-0.1,0.3-0.1,0.5-0.1c0.2,0,0.4,0,0.5,0.1
					c0.1,0.1,0.3,0.2,0.3,0.3c0,0,0,0.1,0,0.1c0,0.1,0,0.1-0.1,0.2c-0.1,0-0.2,0-0.2,0c0,0-0.1,0-0.1-0.1c-0.1-0.1-0.1-0.1-0.2-0.2
					c-0.1,0-0.2-0.1-0.3-0.1c-0.2,0-0.3,0-0.4,0.1c-0.1,0-0.1,0.1-0.1,0.2c0,0.1,0,0.2,0.1,0.2c0.1,0.1,0.2,0.1,0.5,0.1
					c0.3,0,0.5,0.1,0.6,0.2c0.2,0.1,0.2,0.3,0.2,0.5c0,0.2,0,0.3-0.1,0.4c-0.1,0.1-0.2,0.2-0.4,0.3C74.2,34.2,74.1,34.2,73.9,34.2z
					 M73.1,33.5L73.1,33.5C73.1,33.6,73,33.6,73.1,33.5c-0.1,0-0.1,0.1-0.1,0.1c0,0,0,0,0,0c0.1,0.1,0.2,0.2,0.3,0.3l0,0
					c0.2,0.1,0.3,0.1,0.5,0.1c0.2,0,0.3,0,0.4-0.1c0.1,0,0.2-0.1,0.3-0.2c0.1-0.1,0.1-0.2,0.1-0.3c0-0.2-0.1-0.3-0.2-0.4
					c-0.1-0.1-0.3-0.2-0.6-0.2c-0.3,0-0.4-0.1-0.5-0.2c-0.1-0.1-0.2-0.2-0.2-0.3c0-0.1,0.1-0.2,0.2-0.3c0.1-0.1,0.3-0.1,0.4-0.1
					c0.1,0,0.3,0,0.4,0.1c0.1,0.1,0.2,0.1,0.2,0.2c0,0,0,0,0,0c0,0,0.1,0,0.1,0c0,0,0,0,0-0.1c0,0,0,0,0-0.1
					c-0.1-0.1-0.2-0.2-0.3-0.3c-0.1-0.1-0.3-0.1-0.4-0.1c-0.2,0-0.3,0-0.4,0.1c-0.1,0-0.2,0.1-0.3,0.2c-0.1,0.1-0.1,0.2-0.1,0.3
					c0,0.2,0.1,0.3,0.2,0.4c0.1,0.1,0.3,0.2,0.6,0.2c0.2,0,0.4,0.1,0.5,0.2c0.1,0.1,0.2,0.2,0.2,0.3c0,0.1-0.1,0.3-0.2,0.3
					c-0.1,0.1-0.3,0.1-0.5,0.1c-0.1,0-0.3,0-0.4-0.1c-0.1-0.1-0.2-0.1-0.3-0.2C73.2,33.6,73.2,33.6,73.1,33.5
					C73.2,33.6,73.1,33.5,73.1,33.5z"/>
			</g>
			<g>
				<path class="st2" d="M77.1,34c-0.2-0.1-0.3-0.2-0.4-0.3c0,0,0,0,0-0.1c0,0,0-0.1,0-0.1c0,0,0.1,0,0.1,0c0,0,0,0,0,0
					c0,0,0.1,0,0.1,0c0,0,0.1,0,0.1,0.1c0,0.1,0.1,0.1,0.2,0.2c0.1,0.1,0.2,0.1,0.4,0.1c0.2,0,0.3,0,0.4-0.1
					c0.1-0.1,0.2-0.2,0.2-0.3c0-0.1,0-0.2-0.1-0.3c-0.1-0.1-0.2-0.1-0.4-0.2c-0.3,0-0.5-0.1-0.6-0.2s-0.2-0.3-0.2-0.5
					c0-0.1,0-0.2,0.1-0.3c0.1-0.1,0.2-0.2,0.3-0.2c0.1,0,0.3-0.1,0.5-0.1c0.2,0,0.3,0,0.5,0.1c0.1,0.1,0.2,0.2,0.3,0.3
					c0,0,0,0.1,0,0.1c0,0,0,0.1-0.1,0.1c0,0-0.1,0-0.1,0c0,0-0.1,0-0.1,0c0,0-0.1,0-0.1-0.1c-0.1-0.1-0.1-0.2-0.2-0.2
					C78,32,77.9,32,77.7,32c-0.2,0-0.3,0-0.4,0.1c-0.1,0.1-0.2,0.1-0.2,0.3c0,0.1,0,0.2,0.1,0.3c0.1,0.1,0.3,0.1,0.5,0.1
					c0.3,0,0.5,0.1,0.6,0.2c0.1,0.1,0.2,0.3,0.2,0.5c0,0.1,0,0.3-0.1,0.4c-0.1,0.1-0.2,0.2-0.3,0.2c-0.1,0.1-0.3,0.1-0.5,0.1
					C77.5,34.2,77.3,34.1,77.1,34z"/>
				<path class="st2" d="M77.7,34.2c-0.2,0-0.4,0-0.6-0.1c-0.2-0.1-0.3-0.2-0.4-0.4c0,0,0-0.1,0-0.1c0,0,0-0.1,0.1-0.1
					c0,0,0.1-0.1,0.1-0.1c0,0,0,0,0,0c0,0,0.1,0,0.1,0c0,0,0.1,0.1,0.1,0.1c0,0.1,0.1,0.1,0.2,0.2c0.1,0.1,0.2,0.1,0.4,0.1
					c0.2,0,0.3,0,0.4-0.1c0.1-0.1,0.1-0.1,0.1-0.2c0-0.1,0-0.2-0.1-0.3c-0.1-0.1-0.2-0.1-0.4-0.1c-0.3,0-0.5-0.1-0.7-0.2
					c-0.2-0.1-0.3-0.3-0.3-0.5c0-0.1,0-0.3,0.1-0.4c0.1-0.1,0.2-0.2,0.4-0.2c0.1-0.1,0.3-0.1,0.5-0.1c0.2,0,0.4,0,0.5,0.1
					c0.1,0.1,0.3,0.2,0.3,0.3c0,0,0,0.1,0,0.1c0,0.1,0,0.1-0.1,0.2c-0.1,0-0.2,0-0.2,0c0,0-0.1,0-0.1-0.1c-0.1-0.1-0.1-0.1-0.2-0.2
					c-0.1,0-0.2-0.1-0.3-0.1c-0.2,0-0.3,0-0.4,0.1c-0.1,0-0.1,0.1-0.1,0.2c0,0.1,0,0.2,0.1,0.2c0.1,0.1,0.2,0.1,0.5,0.1
					c0.3,0,0.5,0.1,0.6,0.2c0.2,0.1,0.2,0.3,0.2,0.5c0,0.2,0,0.3-0.1,0.4c-0.1,0.1-0.2,0.2-0.4,0.3C78,34.2,77.9,34.2,77.7,34.2z
					 M76.9,33.5L76.9,33.5C76.9,33.6,76.9,33.6,76.9,33.5c-0.1,0-0.1,0.1-0.1,0.1c0,0,0,0,0,0c0.1,0.1,0.2,0.2,0.3,0.3l0,0
					c0.2,0.1,0.3,0.1,0.5,0.1c0.2,0,0.3,0,0.4-0.1c0.1,0,0.2-0.1,0.3-0.2c0.1-0.1,0.1-0.2,0.1-0.3c0-0.2-0.1-0.3-0.2-0.4
					c-0.1-0.1-0.3-0.2-0.6-0.2c-0.3,0-0.4-0.1-0.5-0.2c-0.1-0.1-0.2-0.2-0.2-0.3c0-0.1,0.1-0.2,0.2-0.3c0.1-0.1,0.3-0.1,0.4-0.1
					c0.1,0,0.3,0,0.4,0.1c0.1,0.1,0.2,0.1,0.2,0.2c0,0,0,0,0,0c0,0,0.1,0,0.1,0c0,0,0,0,0-0.1c0,0,0,0,0-0.1
					c-0.1-0.1-0.2-0.2-0.3-0.3c-0.1-0.1-0.3-0.1-0.4-0.1c-0.2,0-0.3,0-0.4,0.1c-0.1,0-0.2,0.1-0.3,0.2c-0.1,0.1-0.1,0.2-0.1,0.3
					c0,0.2,0.1,0.3,0.2,0.4c0.1,0.1,0.3,0.2,0.6,0.2c0.2,0,0.4,0.1,0.5,0.2c0.1,0.1,0.2,0.2,0.2,0.3c0,0.1-0.1,0.3-0.2,0.3
					c-0.1,0.1-0.3,0.1-0.5,0.1c-0.1,0-0.3,0-0.4-0.1c-0.1-0.1-0.2-0.1-0.3-0.2C77,33.6,77,33.6,76.9,33.5C77,33.6,77,33.5,76.9,33.5
					z"/>
			</g>
			<g>
				<path class="st2" d="M82.7,34c0,0,0,0.1,0,0.1c0,0-0.1,0-0.1,0c0,0-0.1,0-0.1,0c0,0-0.1,0-0.1-0.1l-0.2-0.4H81L80.8,34
					c0,0,0,0.1-0.1,0.1c0,0-0.1,0-0.1,0c0,0-0.1,0-0.1,0c0,0,0-0.1,0-0.1c0,0,0,0,0-0.1l0.9-2c0-0.1,0.1-0.1,0.2-0.1
					c0.1,0,0.1,0,0.2,0.1L82.7,34C82.7,33.9,82.7,34,82.7,34z M81.1,33.3H82l-0.5-1.1L81.1,33.3z"/>
				<path class="st2" d="M82.5,34.2c0,0-0.1,0-0.1,0c0,0-0.1-0.1-0.1-0.1l-0.2-0.4H81l-0.2,0.4c0,0-0.1,0.1-0.1,0.1
					c-0.1,0.1-0.2,0-0.3,0c0,0-0.1-0.1-0.1-0.2c0,0,0-0.1,0-0.1l0.9-2c0.1-0.1,0.1-0.1,0.2-0.1c0.1,0,0.2,0.1,0.2,0.1l0.9,2
					c0,0,0,0.1,0,0.1c0,0.1,0,0.1-0.1,0.2C82.6,34.2,82.6,34.2,82.5,34.2z M80.9,33.6h1.3l0.2,0.5c0,0,0,0,0,0c0,0,0.1,0,0.1,0
					c0,0,0,0,0-0.1c0,0,0,0,0,0l-0.9-2c0-0.1-0.1-0.1-0.1-0.1c0,0-0.1,0-0.1,0.1l-0.9,2c0,0,0,0,0,0c0,0,0,0.1,0,0.1
					c0,0,0.1,0,0.1,0c0,0,0,0,0,0L80.9,33.6z M82.1,33.4H81l0.6-1.3L82.1,33.4z M81.2,33.3h0.8l-0.4-0.9L81.2,33.3z"/>
			</g>
			<g>
				<path class="st2" d="M86.5,32.9c0,0,0,0.1,0,0.1v0.7c0,0,0,0.1-0.1,0.1c-0.2,0.2-0.5,0.3-0.8,0.3c-0.2,0-0.4-0.1-0.6-0.2
					c-0.2-0.1-0.3-0.3-0.5-0.4c-0.1-0.2-0.2-0.4-0.2-0.6c0-0.2,0.1-0.4,0.2-0.6s0.3-0.3,0.5-0.4c0.2-0.1,0.4-0.2,0.6-0.2
					c0.2,0,0.3,0,0.4,0.1c0.1,0,0.2,0.1,0.4,0.2c0,0,0,0,0.1,0.1c0,0,0,0,0,0.1c0,0,0,0.1,0,0.1c0,0-0.1,0-0.1,0c0,0-0.1,0-0.1,0
					c-0.1-0.1-0.2-0.1-0.3-0.2c-0.1,0-0.2,0-0.3,0c-0.2,0-0.3,0-0.5,0.1c-0.1,0.1-0.3,0.2-0.3,0.3c-0.1,0.1-0.1,0.3-0.1,0.5
					c0,0.2,0,0.3,0.1,0.5c0.1,0.1,0.2,0.3,0.3,0.3c0.1,0.1,0.3,0.1,0.5,0.1c0.2,0,0.4-0.1,0.5-0.2v-0.5h-0.5c-0.1,0-0.1,0-0.1,0
					c0,0,0-0.1,0-0.1c0,0,0-0.1,0-0.1c0,0,0.1,0,0.1,0h0.6C86.4,32.9,86.5,32.9,86.5,32.9z"/>
				<path class="st2" d="M85.7,34.2c-0.2,0-0.5-0.1-0.7-0.2c-0.2-0.1-0.4-0.3-0.5-0.5c-0.1-0.2-0.2-0.4-0.2-0.6
					c0-0.2,0.1-0.4,0.2-0.6c0.1-0.2,0.3-0.3,0.5-0.5c0.2-0.1,0.4-0.2,0.7-0.2c0.2,0,0.3,0,0.5,0.1c0.1,0,0.3,0.1,0.4,0.2
					c0,0,0.1,0,0.1,0.1c0,0,0,0.1,0,0.1c0,0.1,0,0.1-0.1,0.1c-0.1,0.1-0.2,0.1-0.3,0c-0.1-0.1-0.2-0.1-0.2-0.1c-0.1,0-0.2,0-0.3,0
					c-0.2,0-0.3,0-0.4,0.1c-0.1,0.1-0.2,0.2-0.3,0.3c-0.1,0.1-0.1,0.3-0.1,0.4c0,0.2,0,0.3,0.1,0.4c0.1,0.1,0.2,0.2,0.3,0.3
					c0.3,0.2,0.6,0.2,0.9,0v-0.5h-0.4c-0.1,0-0.1,0-0.2-0.1c0,0-0.1-0.1-0.1-0.1s0-0.1,0.1-0.1c0,0,0.1-0.1,0.2-0.1h0.6
					c0.1,0,0.1,0,0.2,0.1c0,0,0.1,0.1,0.1,0.2v0.7c0,0.1,0,0.1-0.1,0.2C86.3,34.1,86,34.2,85.7,34.2z M85.7,31.8
					c-0.2,0-0.4,0.1-0.6,0.2c-0.2,0.1-0.3,0.2-0.4,0.4c-0.1,0.2-0.2,0.4-0.2,0.6c0,0.2,0.1,0.4,0.2,0.6c0.1,0.2,0.3,0.3,0.4,0.4
					c0.2,0.1,0.4,0.2,0.6,0.2c0.3,0,0.5-0.1,0.8-0.3c0,0,0,0,0-0.1v-0.7c0,0,0-0.1,0-0.1h0c0,0,0,0-0.1,0h-0.6c0,0-0.1,0-0.1,0
					c0,0,0,0,0,0.1s0,0,0,0.1c0,0,0,0,0.1,0h0.5v0.6l0,0c-0.3,0.2-0.7,0.2-1.1,0c-0.2-0.1-0.3-0.2-0.4-0.4c-0.1-0.1-0.1-0.3-0.1-0.5
					c0-0.2,0-0.3,0.1-0.5c0.1-0.2,0.2-0.3,0.4-0.4c0.2-0.1,0.3-0.1,0.5-0.1c0.1,0,0.3,0,0.4,0.1c0.1,0,0.2,0.1,0.3,0.2
					c0,0,0.1,0,0.1,0c0,0,0,0,0-0.1c0,0,0,0,0,0c0,0,0,0,0,0c-0.1-0.1-0.2-0.2-0.4-0.2C86,31.8,85.8,31.8,85.7,31.8z"/>
			</g>
			<g>
				<path class="st2" d="M88.7,34.1c0,0,0-0.1,0-0.1v-2.1c0,0,0-0.1,0-0.1c0,0,0.1,0,0.1,0h1.5c0.1,0,0.1,0,0.1,0c0,0,0,0.1,0,0.1
					c0,0,0,0.1,0,0.1c0,0-0.1,0-0.1,0H89v0.7h0.9c0,0,0.1,0,0.1,0c0,0,0,0.1,0,0.1s0,0.1,0,0.1c0,0-0.1,0-0.1,0H89v0.8h1.3
					c0.1,0,0.1,0,0.1,0c0,0,0,0.1,0,0.1c0,0,0,0.1,0,0.1c0,0-0.1,0-0.1,0h-1.5C88.8,34.1,88.7,34.1,88.7,34.1z"/>
				<path class="st2" d="M90.3,34.2h-1.5c-0.1,0-0.1,0-0.2-0.1S88.6,34,88.6,34v-2.1c0-0.1,0-0.1,0.1-0.2c0,0,0.1-0.1,0.2-0.1h1.5
					c0.1,0,0.1,0,0.2,0.1c0,0,0.1,0.1,0.1,0.2c0,0.1,0,0.1-0.1,0.1c0,0-0.1,0.1-0.2,0.1h-1.2v0.6h0.9c0.1,0,0.1,0,0.2,0.1
					c0,0,0.1,0.1,0.1,0.1c0,0.1,0,0.1-0.1,0.1c0,0-0.1,0.1-0.2,0.1h-0.9v0.6h1.2c0.1,0,0.1,0,0.2,0.1c0,0,0.1,0.1,0.1,0.1
					c0,0.1,0,0.1-0.1,0.2C90.4,34.2,90.4,34.2,90.3,34.2z M88.8,31.8C88.8,31.8,88.8,31.8,88.8,31.8c-0.1,0-0.1,0.1-0.1,0.1V34
					c0,0,0,0.1,0,0.1s0,0,0.1,0h1.5c0,0,0.1,0,0.1,0c0,0,0,0,0-0.1c0,0,0,0,0-0.1c0,0,0,0-0.1,0h-1.4V33h1c0,0,0.1,0,0.1,0
					c0,0,0,0,0-0.1c0,0,0,0,0-0.1c0,0,0,0-0.1,0h-1V32h1.4c0,0,0.1,0,0.1,0c0,0,0,0,0-0.1c0,0,0,0,0-0.1c0,0,0,0-0.1,0H88.8z"/>
			</g>
			<g>
				<path class="st2" d="M96.8,31.8c0,0,0,0.1,0,0.1c0,0,0,0.1,0,0.1c0,0-0.1,0-0.1,0H96V34c0,0,0,0.1,0,0.1c0,0-0.1,0-0.1,0
					c0,0-0.1,0-0.1,0c0,0,0-0.1,0-0.1V32h-0.7c0,0-0.1,0-0.1,0c0,0,0-0.1,0-0.1c0,0,0-0.1,0-0.1c0,0,0.1,0,0.1,0h1.8
					C96.7,31.8,96.8,31.8,96.8,31.8z"/>
				<path class="st2" d="M95.8,34.2c-0.1,0-0.1,0-0.2-0.1c0,0-0.1-0.1-0.1-0.2v-1.9h-0.6c-0.1,0-0.1,0-0.2-0.1c0,0-0.1-0.1-0.1-0.1
					c0-0.1,0-0.1,0.1-0.1c0,0,0.1-0.1,0.2-0.1h1.8c0.1,0,0.1,0,0.2,0.1l0,0c0,0,0.1,0.1,0.1,0.1s0,0.1-0.1,0.1c0,0-0.1,0.1-0.2,0.1
					H96V34c0,0.1,0,0.1-0.1,0.2C95.9,34.2,95.9,34.2,95.8,34.2z M94.9,31.8C94.9,31.8,94.9,31.8,94.9,31.8
					C94.8,31.9,94.8,31.9,94.9,31.8c-0.1,0.1-0.1,0.1-0.1,0.2c0,0,0,0,0.1,0h0.8v2c0,0,0,0.1,0,0.1c0,0,0.1,0,0.2,0c0,0,0,0,0-0.1
					v-2h0.8c0,0,0.1,0,0.1,0c0,0,0,0,0-0.1c0,0,0,0,0-0.1c0,0,0,0-0.1,0H94.9z"/>
			</g>
			<g>
				<path class="st2" d="M98.8,34.1c0,0,0-0.1,0-0.1v-2.1c0,0,0-0.1,0-0.1c0,0,0.1,0,0.1,0c0.1,0,0.1,0,0.1,0c0,0,0,0.1,0,0.1v0.9
					h1.5v-0.9c0,0,0-0.1,0-0.1c0,0,0.1,0,0.1,0s0.1,0,0.1,0c0,0,0,0.1,0,0.1V34c0,0,0,0.1,0,0.1c0,0-0.1,0-0.1,0s-0.1,0-0.1,0
					s0-0.1,0-0.1v-0.9h-1.5V34c0,0,0,0.1,0,0.1c0,0-0.1,0-0.1,0C98.9,34.1,98.9,34.1,98.8,34.1z"/>
				<path class="st2" d="M100.8,34.2c-0.1,0-0.1,0-0.2-0.1s-0.1-0.1-0.1-0.2v-0.8h-1.4V34c0,0.1,0,0.1-0.1,0.2
					c-0.1,0.1-0.2,0.1-0.3,0c0,0-0.1-0.1-0.1-0.2v-2.1c0-0.1,0-0.1,0.1-0.2c0.1-0.1,0.2-0.1,0.3,0c0,0,0.1,0.1,0.1,0.2v0.8h1.4v-0.8
					c0-0.1,0-0.1,0.1-0.2c0.1-0.1,0.2-0.1,0.3,0c0,0,0.1,0.1,0.1,0.2V34c0,0.1,0,0.1-0.1,0.2C100.9,34.2,100.9,34.2,100.8,34.2z
					 M99.1,33h1.6v1c0,0,0,0.1,0,0.1c0,0,0.1,0,0.2,0c0,0,0,0,0-0.1v-2.1c0,0,0-0.1,0-0.1c0,0-0.1,0-0.2,0c0,0,0,0,0,0.1v0.9h-1.6
					v-0.9c0,0,0-0.1,0-0.1c0,0-0.1,0-0.2,0c0,0,0,0,0,0.1V34c0,0,0,0.1,0,0.1c0,0,0.1,0,0.2,0c0,0,0,0,0-0.1V33z"/>
			</g>
			<g>
				<path class="st2" d="M103.2,34.1c0,0,0-0.1,0-0.1v-2.1c0,0,0-0.1,0-0.1c0,0,0.1,0,0.1,0h1.5c0.1,0,0.1,0,0.1,0c0,0,0,0.1,0,0.1
					c0,0,0,0.1,0,0.1c0,0-0.1,0-0.1,0h-1.3v0.7h0.9c0,0,0.1,0,0.1,0c0,0,0,0.1,0,0.1s0,0.1,0,0.1c0,0-0.1,0-0.1,0h-0.9v0.8h1.3
					c0.1,0,0.1,0,0.1,0c0,0,0,0.1,0,0.1c0,0,0,0.1,0,0.1c0,0-0.1,0-0.1,0h-1.5C103.3,34.1,103.3,34.1,103.2,34.1z"/>
				<path class="st2" d="M104.8,34.2h-1.5c-0.1,0-0.1,0-0.2-0.1s-0.1-0.1-0.1-0.2v-2.1c0-0.1,0-0.1,0.1-0.2c0,0,0.1-0.1,0.2-0.1h1.5
					c0.1,0,0.1,0,0.2,0.1c0,0,0.1,0.1,0.1,0.2c0,0.1,0,0.1-0.1,0.1c0,0-0.1,0.1-0.2,0.1h-1.2v0.6h0.9c0.1,0,0.1,0,0.2,0.1
					c0,0,0.1,0.1,0.1,0.1c0,0.1,0,0.1-0.1,0.1c0,0-0.1,0.1-0.2,0.1h-0.9v0.6h1.2c0.1,0,0.1,0,0.2,0.1c0,0,0.1,0.1,0.1,0.1
					c0,0.1,0,0.1-0.1,0.2C105,34.2,104.9,34.2,104.8,34.2z M103.4,31.8C103.3,31.8,103.3,31.8,103.4,31.8c-0.1,0-0.1,0.1-0.1,0.1V34
					c0,0,0,0.1,0,0.1s0,0,0.1,0h1.5c0,0,0.1,0,0.1,0c0,0,0,0,0-0.1c0,0,0,0,0-0.1c0,0,0,0-0.1,0h-1.4V33h1c0,0,0.1,0,0.1,0
					c0,0,0,0,0-0.1c0,0,0,0,0-0.1c0,0,0,0-0.1,0h-1V32h1.4c0,0,0.1,0,0.1,0c0,0,0,0,0-0.1c0,0,0,0,0-0.1c0,0,0,0-0.1,0H103.4z"/>
			</g>
			<g>
				<path class="st2" d="M108.8,34c0,0,0,0.1,0,0.1c0,0-0.1,0-0.1,0c-0.1,0-0.1,0-0.1-0.1l-0.6-0.8h-0.1h-0.4V34c0,0,0,0.1,0,0.1
					c0,0-0.1,0-0.1,0c0,0-0.1,0-0.1,0c0,0,0-0.1,0-0.1v-2.1c0,0,0-0.1,0-0.1c0,0,0.1,0,0.1,0h0.6c0.2,0,0.3,0,0.4,0.1
					c0.1,0.1,0.2,0.2,0.3,0.3c0.1,0.1,0.1,0.2,0.1,0.4c0,0.1,0,0.3-0.1,0.4c-0.1,0.1-0.2,0.2-0.3,0.3l0.5,0.7
					C108.7,33.9,108.8,34,108.8,34z M107.8,32.9c0.1,0,0.3,0,0.4-0.1c0.1-0.1,0.1-0.2,0.1-0.3c0-0.1,0-0.2-0.1-0.3
					c-0.1-0.1-0.2-0.1-0.4-0.1h-0.4v0.9H107.8z"/>
				<path class="st2" d="M108.6,34.2c-0.1,0-0.2,0-0.2-0.1l-0.5-0.8h-0.4V34c0,0.1,0,0.1-0.1,0.2c-0.1,0.1-0.2,0.1-0.3,0
					c0,0-0.1-0.1-0.1-0.2v-2.1c0-0.1,0-0.1,0.1-0.2c0,0,0.1-0.1,0.2-0.1h0.6c0.2,0,0.3,0,0.5,0.1c0.1,0.1,0.2,0.2,0.3,0.3
					c0.1,0.1,0.1,0.3,0.1,0.4c0,0.2,0,0.3-0.1,0.4c-0.1,0.1-0.2,0.2-0.3,0.2l0.5,0.7c0,0,0,0.1,0,0.1c0,0.1,0,0.1-0.1,0.1
					S108.7,34.2,108.6,34.2z M107.3,33.2h0.6l0.6,0.9c0,0,0.1,0,0.1,0c0,0,0.1,0,0.1,0c0,0,0,0,0-0.1c0,0,0,0,0-0.1l-0.5-0.8l0.1,0
					c0.1-0.1,0.2-0.1,0.3-0.2c0.1-0.1,0.1-0.2,0.1-0.4c0-0.1,0-0.3-0.1-0.4c-0.1-0.1-0.2-0.2-0.3-0.2s-0.3-0.1-0.4-0.1h-0.6
					c0,0-0.1,0-0.1,0c0,0,0,0,0,0.1V34c0,0,0,0.1,0,0.1c0,0,0.1,0,0.2,0c0,0,0,0,0-0.1V33.2z M107.8,33h-0.5v-1h0.5
					c0.2,0,0.3,0,0.4,0.1c0.1,0.1,0.2,0.2,0.2,0.4c0,0.1-0.1,0.3-0.2,0.3C108.1,32.9,108,33,107.8,33z M107.5,32.9h0.4
					c0.1,0,0.2,0,0.3-0.1c0.1-0.1,0.1-0.2,0.1-0.3c0-0.1,0-0.2-0.1-0.3c-0.1-0.1-0.2-0.1-0.3-0.1h-0.4V32.9z"/>
			</g>
			<g>
				<path class="st2" d="M112.6,34c0,0,0,0.1,0,0.1c0,0-0.1,0-0.1,0c0,0-0.1,0-0.1,0c0,0-0.1,0-0.1-0.1l-0.2-0.4h-1.2l-0.2,0.4
					c0,0,0,0.1-0.1,0.1c0,0-0.1,0-0.1,0c0,0-0.1,0-0.1,0c0,0,0-0.1,0-0.1c0,0,0,0,0-0.1l0.9-2c0-0.1,0.1-0.1,0.2-0.1
					c0.1,0,0.1,0,0.2,0.1L112.6,34C112.6,33.9,112.6,34,112.6,34z M111.1,33.3h0.9l-0.5-1.1L111.1,33.3z"/>
				<path class="st2" d="M112.5,34.2c0,0-0.1,0-0.1,0c0,0-0.1-0.1-0.1-0.1l-0.2-0.4H111l-0.2,0.4c0,0-0.1,0.1-0.1,0.1
					c-0.1,0.1-0.2,0-0.3,0c0,0-0.1-0.1-0.1-0.2c0,0,0-0.1,0-0.1l0.9-2c0.1-0.1,0.1-0.1,0.2-0.1c0.1,0,0.2,0.1,0.2,0.1l0.9,2
					c0,0,0,0.1,0,0.1c0,0.1,0,0.1-0.1,0.2C112.6,34.2,112.5,34.2,112.5,34.2z M110.9,33.6h1.3l0.2,0.5c0,0,0,0,0,0c0,0,0.1,0,0.1,0
					c0,0,0,0,0-0.1c0,0,0,0,0,0l-0.9-2c0-0.1-0.1-0.1-0.1-0.1c0,0-0.1,0-0.1,0.1l-0.9,2c0,0,0,0,0,0c0,0,0,0.1,0,0.1
					c0,0,0.1,0,0.1,0c0,0,0,0,0,0L110.9,33.6z M112.1,33.4H111l0.6-1.3L112.1,33.4z M111.1,33.3h0.8l-0.4-0.9L111.1,33.3z"/>
			</g>
			<g>
				<path class="st2" d="M114.6,34.1c0,0,0-0.1,0-0.1v-2.1c0,0,0-0.1,0-0.1c0,0,0.1,0,0.1,0h0.7c0.2,0,0.3,0,0.4,0.1
					c0.1,0.1,0.2,0.2,0.3,0.3c0.1,0.1,0.1,0.3,0.1,0.4c0,0.1,0,0.3-0.1,0.4s-0.2,0.2-0.3,0.3c-0.1,0.1-0.3,0.1-0.4,0.1h-0.5V34
					c0,0,0,0.1,0,0.1c0,0-0.1,0-0.1,0C114.7,34.1,114.6,34.1,114.6,34.1z M115.4,33c0.1,0,0.3,0,0.4-0.1c0.1-0.1,0.1-0.2,0.1-0.3
					c0-0.1,0-0.3-0.1-0.4c-0.1-0.1-0.2-0.1-0.4-0.1h-0.5v1H115.4z"/>
				<path class="st2" d="M114.7,34.2c-0.1,0-0.1,0-0.2-0.1s-0.1-0.1-0.1-0.2v-2.1c0-0.1,0-0.1,0.1-0.2c0,0,0.1-0.1,0.2-0.1h0.7
					c0.2,0,0.3,0,0.5,0.1c0.1,0.1,0.2,0.2,0.3,0.3c0.1,0.1,0.1,0.3,0.1,0.4c0,0.2,0,0.3-0.1,0.4c-0.1,0.1-0.2,0.2-0.3,0.3
					c-0.1,0.1-0.3,0.1-0.5,0.1H115V34c0,0.1,0,0.1-0.1,0.2C114.9,34.2,114.8,34.2,114.7,34.2z M114.7,31.8
					C114.7,31.8,114.7,31.8,114.7,31.8c-0.1,0-0.1,0.1-0.1,0.1V34c0,0,0,0.1,0,0.1c0,0,0.1,0,0.2,0c0,0,0,0,0-0.1v-0.7h0.5
					c0.2,0,0.3,0,0.4-0.1c0.1-0.1,0.2-0.1,0.3-0.2c0.1-0.1,0.1-0.2,0.1-0.4c0-0.1,0-0.3-0.1-0.4c-0.1-0.1-0.2-0.2-0.3-0.3
					c-0.1-0.1-0.3-0.1-0.4-0.1H114.7z M115.4,33.1h-0.5V32h0.5c0.2,0,0.3,0.1,0.4,0.2c0.1,0.1,0.2,0.2,0.2,0.4
					c0,0.2-0.1,0.3-0.2,0.4C115.7,33,115.6,33.1,115.4,33.1z M115,33h0.4c0.1,0,0.2,0,0.3-0.1c0.1-0.1,0.1-0.2,0.1-0.3
					c0-0.1,0-0.2-0.1-0.3c-0.1-0.1-0.2-0.1-0.3-0.1H115V33z"/>
			</g>
			<g>
				<path class="st2" d="M120,31.8c0,0,0,0.1,0,0.1c0,0,0,0.1,0,0.1l-0.9,1.3V34c0,0,0,0.1,0,0.1c0,0-0.1,0-0.1,0c0,0-0.1,0-0.1,0
					c0,0,0-0.1,0-0.1v-0.7l-0.9-1.3c0,0,0-0.1,0-0.1c0,0,0-0.1,0.1-0.1c0,0,0.1,0,0.1,0c0,0,0.1,0,0.1,0c0,0,0,0,0.1,0.1L119,33
					l0.8-1.1c0-0.1,0.1-0.1,0.2-0.1C119.9,31.8,120,31.8,120,31.8z"/>
				<path class="st2" d="M118.9,34.2c-0.1,0-0.1,0-0.2-0.1c0,0-0.1-0.1-0.1-0.2v-0.7l-0.9-1.2c0,0,0-0.1,0-0.1c0-0.1,0-0.1,0.1-0.1
					c0.1-0.1,0.2-0.1,0.3,0c0,0,0.1,0,0.1,0.1l0.7,1.1l0.7-1.1c0-0.1,0.1-0.1,0.2-0.1c0.1,0,0.1,0,0.1,0.1c0,0,0.1,0.1,0.1,0.1
					c0,0,0,0.1,0,0.1l-0.9,1.2V34c0,0.1,0,0.1-0.1,0.2C119.1,34.2,119,34.2,118.9,34.2z M118,31.8C118,31.8,118,31.8,118,31.8
					c-0.1,0-0.1,0.1-0.1,0.1c0,0,0,0,0,0.1l0.9,1.3V34c0,0,0,0.1,0,0.1c0,0,0.1,0,0.1,0c0,0,0,0,0-0.1v-0.7l0.9-1.3c0,0,0,0,0-0.1
					c0,0,0,0,0-0.1c0,0,0,0-0.1,0c0,0-0.1,0-0.1,0l-0.8,1.2L118,31.8C118.1,31.9,118.1,31.8,118,31.8
					C118.1,31.8,118.1,31.8,118,31.8z"/>
			</g>
		</g>
	</g>
</g>
</svg>
